<svg width="500" height="373" viewBox="0 0 500 373" fill="none" xmlns="http://www.w3.org/2000/svg">
<path d="M271.19 120.6C216.05 110.45 104.71 47.69 92.1201 154.19C83.8701 224 186.87 309.89 247.48 321.55C315.67 334.67 390.13 292.96 409.08 224.18C419.18 187.53 408.51 142 371.94 123.37C339.76 107 304.49 126.72 271.19 120.6Z" fill="#302815"/>
<path opacity="0.9" d="M271.19 120.6C216.05 110.45 104.71 47.69 92.1201 154.19C83.8701 224 186.87 309.89 247.48 321.55C315.67 334.67 390.13 292.96 409.08 224.18C419.18 187.53 408.51 142 371.94 123.37C339.76 107 304.49 126.72 271.19 120.6Z" fill="white"/>
<path d="M250 372.56C357.083 372.56 443.89 367.492 443.89 361.24C443.89 354.988 357.083 349.92 250 349.92C142.918 349.92 56.11 354.988 56.11 361.24C56.11 367.492 142.918 372.56 250 372.56Z" fill="#F5F5F5"/>
<path d="M343.44 218.15C343.356 218.153 343.274 218.124 343.21 218.07C343.172 218.04 343.14 218.002 343.117 217.96C343.093 217.917 343.078 217.871 343.072 217.822C343.067 217.774 343.071 217.725 343.084 217.678C343.097 217.632 343.12 217.588 343.15 217.55C350.29 208.44 349.63 198.11 348.8 185.04C348.51 180.48 348.21 175.76 348.18 170.56C348.13 161.56 351.7 147.01 355.18 132.92C359.5 115.28 363.96 97.03 360.18 93.03C353.47 85.89 330.69 94.2 318.56 102.83C308.62 109.91 300.77 108.53 286.51 106.01C282.78 105.35 278.51 104.61 273.73 103.93C254.73 101.24 252.67 104.22 249.81 108.34C249.26 109.13 248.68 109.95 247.96 110.8C247.926 110.835 247.884 110.863 247.839 110.883C247.793 110.902 247.744 110.912 247.695 110.912C247.646 110.912 247.597 110.902 247.551 110.883C247.506 110.863 247.464 110.835 247.43 110.8C247.363 110.728 247.326 110.633 247.326 110.535C247.326 110.437 247.363 110.342 247.43 110.27C248.074 109.504 248.675 108.702 249.23 107.87C252.23 103.53 254.42 100.39 273.88 103.14C278.7 103.83 282.94 104.57 286.68 105.23C300.74 107.71 308.48 109.08 318.17 102.18C330.8 93.18 353.68 84.94 360.77 92.48C364.77 96.77 360.49 114.4 355.92 133.06C352.49 147.06 348.92 161.62 348.98 170.52C348.98 175.7 349.31 180.4 349.6 184.95C350.44 198.19 351.1 208.64 343.79 217.95C343.755 218.012 343.705 218.063 343.643 218.099C343.581 218.134 343.511 218.152 343.44 218.15Z" fill="#263238"/>
<path d="M249.079 137.801C252.59 134.29 252.59 128.598 249.079 125.087C245.568 121.576 239.876 121.576 236.365 125.087C232.854 128.598 232.854 134.29 236.365 137.801C239.876 141.312 245.568 141.312 249.079 137.801Z" fill="white"/>
<path opacity="0.3" d="M249.079 137.801C252.59 134.29 252.59 128.598 249.079 125.087C245.568 121.576 239.876 121.576 236.365 125.087C232.854 128.598 232.854 134.29 236.365 137.801C239.876 141.312 245.568 141.312 249.079 137.801Z" fill="#302815"/>
<path d="M248.66 109.63C247.709 106.814 245.726 104.463 243.11 103.052C240.494 101.642 237.44 101.275 234.565 102.028C231.689 102.78 229.206 104.595 227.617 107.107C226.027 109.618 225.449 112.639 226 115.56L230.76 139.39L256.21 132.75L248.66 109.63Z" fill="#302815"/>
<path d="M253 111.67C253 112.989 252.609 114.279 251.876 115.376C251.143 116.473 250.101 117.328 248.882 117.832C247.664 118.337 246.323 118.469 245.029 118.212C243.735 117.955 242.546 117.319 241.614 116.386C240.681 115.454 240.046 114.265 239.788 112.971C239.531 111.677 239.663 110.336 240.168 109.118C240.673 107.899 241.527 106.857 242.624 106.124C243.721 105.391 245.011 105 246.33 105C247.206 104.999 248.074 105.17 248.884 105.505C249.694 105.84 250.43 106.331 251.049 106.951C251.669 107.57 252.16 108.306 252.495 109.116C252.83 109.926 253.001 110.794 253 111.67Z" fill="#263238"/>
<path d="M246.33 117.54C245.167 117.54 244.029 117.195 243.062 116.548C242.095 115.902 241.341 114.983 240.897 113.908C240.452 112.833 240.336 111.65 240.564 110.509C240.791 109.368 241.353 108.321 242.176 107.499C242.999 106.677 244.048 106.118 245.189 105.892C246.33 105.666 247.513 105.784 248.587 106.23C249.661 106.677 250.579 107.432 251.224 108.401C251.869 109.369 252.212 110.507 252.21 111.67C252.21 112.442 252.058 113.206 251.762 113.919C251.467 114.632 251.033 115.279 250.487 115.824C249.941 116.369 249.293 116.802 248.579 117.096C247.866 117.39 247.102 117.541 246.33 117.54ZM246.33 106.79C245.365 106.79 244.421 107.076 243.619 107.612C242.816 108.149 242.191 108.911 241.822 109.803C241.452 110.694 241.356 111.675 241.544 112.622C241.732 113.569 242.197 114.438 242.879 115.121C243.562 115.803 244.431 116.268 245.378 116.456C246.325 116.645 247.306 116.548 248.198 116.179C249.089 115.809 249.851 115.184 250.388 114.381C250.924 113.579 251.21 112.635 251.21 111.67C251.21 110.376 250.696 109.135 249.781 108.219C248.866 107.304 247.624 106.79 246.33 106.79Z" fill="#302815"/>
<path d="M246.33 112.67C246.089 112.673 245.855 112.588 245.671 112.432C245.487 112.276 245.366 112.058 245.33 111.82C245.31 111.69 245.316 111.557 245.348 111.43C245.379 111.302 245.435 111.182 245.513 111.076C245.591 110.97 245.69 110.88 245.802 110.812C245.915 110.745 246.04 110.7 246.17 110.68L382.72 89.79C382.985 89.7502 383.255 89.8174 383.471 89.9768C383.687 90.1362 383.83 90.3748 383.87 90.64C383.91 90.9052 383.843 91.1754 383.683 91.391C383.524 91.6067 383.285 91.7502 383.02 91.79L246.48 112.65L246.33 112.67Z" fill="#263238"/>
<path d="M326.88 347.69H326.74C326.609 347.673 326.483 347.63 326.369 347.564C326.255 347.497 326.155 347.409 326.075 347.304C325.995 347.199 325.936 347.079 325.903 346.952C325.869 346.824 325.862 346.691 325.88 346.56L363.07 71.32C363.107 71.0595 363.246 70.8241 363.455 70.665C363.665 70.5059 363.929 70.4358 364.19 70.47C364.452 70.5049 364.69 70.6424 364.851 70.8523C365.013 71.0623 365.084 71.3275 365.05 71.59L327.87 346.82C327.838 347.06 327.721 347.281 327.539 347.441C327.356 347.601 327.122 347.69 326.88 347.69Z" fill="#263238"/>
<path d="M365.06 94.1301C365.06 94.9331 364.822 95.718 364.376 96.3857C363.93 97.0533 363.295 97.5737 362.554 97.881C361.812 98.1883 360.995 98.2687 360.208 98.112C359.42 97.9554 358.697 97.5687 358.129 97.0009C357.561 96.4331 357.175 95.7097 357.018 94.9221C356.861 94.1346 356.942 93.3182 357.249 92.5764C357.556 91.8345 358.077 91.2004 358.744 90.7543C359.412 90.3082 360.197 90.0701 361 90.0701C362.077 90.0701 363.109 90.4978 363.871 91.2592C364.632 92.0206 365.06 93.0533 365.06 94.1301Z" fill="#263238"/>
<path d="M124.12 354.18L375.88 354.18V302.14H124.12V354.18Z" fill="#302815"/>
<path opacity="0.1" d="M124.12 354.18L375.88 354.18V302.14H124.12V354.18Z" fill="white"/>
<path d="M124.12 279.26H375.88L379.7 240.15C380.222 234.808 379.62 229.416 377.933 224.32C376.246 219.225 373.512 214.538 369.906 210.563C366.299 206.587 361.901 203.41 356.993 201.237C352.086 199.063 346.778 197.94 341.41 197.94H158.59C153.223 197.94 147.914 199.063 143.007 201.237C138.099 203.41 133.701 206.587 130.095 210.563C126.488 214.538 123.754 219.225 122.067 224.32C120.38 229.416 119.778 234.808 120.3 240.15L124.12 279.26Z" fill="#302815"/>
<path opacity="0.3" d="M124.12 279.26H375.88L379.7 240.15C380.222 234.808 379.62 229.416 377.933 224.32C376.246 219.225 373.512 214.538 369.906 210.563C366.299 206.587 361.901 203.41 356.993 201.237C352.086 199.063 346.778 197.94 341.41 197.94H158.59C153.223 197.94 147.914 199.063 143.007 201.237C138.099 203.41 133.701 206.587 130.095 210.563C126.488 214.538 123.754 219.225 122.067 224.32C120.38 229.416 119.778 234.808 120.3 240.15L124.12 279.26Z" fill="black"/>
<path opacity="0.9" d="M124.12 305.09L375.88 305.09V302.14L124.12 302.14V305.09Z" fill="#302815"/>
<path d="M124.12 302.14L375.88 302.14V274.67L124.12 274.67V302.14Z" fill="#302815"/>
<path opacity="0.2" d="M124.12 302.14L375.88 302.14V274.67L124.12 274.67V302.14Z" fill="black"/>
<path d="M379.4 231.77C375.906 231.77 372.449 232.486 369.242 233.872C366.035 235.259 363.146 237.287 360.753 239.833C358.359 242.378 356.512 245.386 355.325 248.672C354.138 251.958 353.636 255.453 353.85 258.94L358.85 340.83C358.996 343.24 360.056 345.503 361.814 347.157C363.572 348.812 365.896 349.732 368.31 349.73H390.43C392.845 349.73 395.168 348.809 396.928 347.155C398.687 345.502 399.75 343.24 399.9 340.83L404.9 258.94C405.114 255.457 404.614 251.967 403.43 248.684C402.246 245.401 400.403 242.395 398.015 239.851C395.627 237.306 392.744 235.277 389.542 233.887C386.341 232.497 382.89 231.777 379.4 231.77Z" fill="#302815"/>
<path opacity="0.1" d="M398.036 266.665C402.359 256.381 397.526 244.539 387.242 240.216C376.958 235.893 365.116 240.725 360.793 251.01C356.469 261.294 361.302 273.136 371.586 277.459C381.871 281.782 393.713 276.95 398.036 266.665Z" fill="white"/>
<path d="M374.75 358.63H384.05L385.5 349.73H373.3L374.75 358.63Z" fill="#263238"/>
<path d="M115.46 358.63H124.76L126.21 349.73H114.01L115.46 358.63Z" fill="#263238"/>
<path d="M120.6 231.77C117.106 231.77 113.649 232.486 110.442 233.872C107.235 235.259 104.346 237.287 101.953 239.833C99.559 242.378 97.7119 245.386 96.5248 248.672C95.3377 251.958 94.8359 255.453 95.0501 258.94L100.05 340.83C100.2 343.24 101.263 345.502 103.023 347.155C104.782 348.809 107.106 349.73 109.52 349.73H131.64C134.054 349.732 136.378 348.812 138.136 347.157C139.895 345.503 140.955 343.24 141.1 340.83L146.1 258.94C146.314 255.457 145.814 251.967 144.63 248.684C143.446 245.401 141.603 242.395 139.215 239.851C136.827 237.306 133.943 235.277 130.742 233.887C127.541 232.497 124.09 231.777 120.6 231.77Z" fill="#302815"/>
<path opacity="0.1" d="M139.217 266.653C143.54 256.369 138.707 244.527 128.423 240.204C118.138 235.881 106.297 240.713 101.973 250.998C97.6503 261.282 102.483 273.124 112.767 277.447C123.052 281.77 134.894 276.938 139.217 266.653Z" fill="white"/>
<path d="M180 172.94C181.35 173.78 182.93 174.72 184.41 175.6C185.89 176.48 187.41 177.38 188.97 178.24C192.02 179.98 195.11 181.62 198.21 183.24C201.31 184.86 204.44 186.24 207.58 187.53C210.609 188.784 213.723 189.82 216.9 190.63L215.66 190.51C218.48 190.61 221.71 190.58 224.87 190.51L234.47 190.26C240.9 190.1 247.39 189.93 253.87 189.99L254.77 197.22C251.59 198.05 248.4 198.75 245.2 199.42C242 200.09 238.8 200.7 235.58 201.27C232.36 201.84 229.11 202.36 225.84 202.79C222.57 203.22 219.31 203.64 215.66 203.79H215.25L214.41 203.65C210.431 202.987 206.517 201.984 202.71 200.65C199.045 199.398 195.447 197.959 191.93 196.34C188.43 194.76 185.05 193.01 181.72 191.18C180.07 190.26 178.42 189.32 176.8 188.33C175.18 187.34 173.61 186.33 171.9 185.21L180 172.94Z" fill="#FFC3BD"/>
<path d="M167 175.34C165.41 168.9 174.18 168.45 199.46 180.15L193.9 200.43C193.9 200.43 171.83 195 167 175.34Z" fill="#302815"/>
<path opacity="0.2" d="M177.15 181.35C175.02 181.35 172.98 182.85 171.28 184.96C177.86 194.68 188.8 198.85 192.57 200.04H192.7L192.98 200.11C189.11 186.88 183 181.45 177.15 181.35Z" fill="black"/>
<path d="M278.04 270.1L288.42 268.46L285.69 241.99L275.31 243.63L278.04 270.1Z" fill="#FFC3BD"/>
<path d="M288.89 262.5L276.51 262.68C276.295 262.691 276.091 262.779 275.935 262.927C275.779 263.076 275.681 263.276 275.66 263.49L274.07 273.8C274.03 274.04 274.042 274.286 274.104 274.521C274.166 274.756 274.277 274.975 274.43 275.164C274.583 275.353 274.775 275.508 274.992 275.617C275.209 275.727 275.447 275.789 275.69 275.8C279.77 275.66 284.1 275.35 289.24 275.28C292.4 275.23 300.19 275.46 304.56 275.4C308.93 275.34 309.28 270.52 307.47 270.11C299.36 268.28 293.3 265.68 290.61 263.11C290.137 262.692 289.521 262.473 288.89 262.5Z" fill="#263238"/>
<path d="M202.22 240C202.22 240 240.22 196.22 260.11 200.44C282.92 205.29 292 253.77 292 253.77L274.34 255.77C274.34 255.77 265.11 234.09 254.58 226.15C233 261 177.79 286.76 171 250.8C180.07 247.15 202.22 240 202.22 240Z" fill="#263238"/>
<path d="M293.71 254.08L271.68 258.39L270.02 251.12L293 246.15L293.71 254.08Z" fill="#263238"/>
<path d="M251.47 190.19L259.97 188.56L263.52 198.69C263.52 198.69 255.02 201.51 250.89 196.16L251.47 190.19Z" fill="#FFC3BD"/>
<path d="M269.78 190.6L271.97 197.94L263.52 198.69L259.97 188.56L269.78 190.6Z" fill="#FFC3BD"/>
<path d="M155.69 253.4C155.69 253.4 139.13 229 131 189.68C130.555 187.489 130.589 185.227 131.098 183.05C131.607 180.873 132.579 178.831 133.949 177.064C135.318 175.296 137.053 173.845 139.034 172.809C141.016 171.773 143.197 171.176 145.43 171.06C153.43 170.64 161.87 170.53 168.73 170.56C172.081 170.571 175.338 171.67 178.011 173.692C180.683 175.714 182.627 178.548 183.55 181.77C187.28 194.85 189.63 211.98 204.25 236.3C206.6 240.2 203.72 245.25 199.25 246.01L155.69 253.4Z" fill="#302815"/>
<path opacity="0.2" d="M130.79 184.9C136.38 177.1 141.37 176 142.79 176.44C155.71 180.52 141.79 216.12 139.69 220.09C136.043 210.145 133.139 199.944 131 189.57C130.688 188.034 130.617 186.458 130.79 184.9Z" fill="black"/>
<path opacity="0.2" d="M195.89 256.44C195.54 257.71 196.53 261.84 202.55 266.52C210.72 264.29 219.55 259.85 227.86 253.96C215.67 250.52 198.34 247.59 195.89 256.44Z" fill="black"/>
<path d="M145.33 146C147.93 153.08 151.26 165.87 147.23 171C152.201 175.313 158.66 177.512 165.23 177.13C173.53 176.86 171.84 173.54 169.12 170.6C161.05 169.23 160.22 162.43 160.6 156.77L145.33 146Z" fill="#FFC3BD"/>
<path opacity="0.2" d="M151.55 150.37L160.55 156.73C160.44 158.061 160.44 159.399 160.55 160.73C157.49 161.79 152.5 158.97 151.63 155.79C151.336 153.997 151.309 152.171 151.55 150.37Z" fill="black"/>
<path d="M162 138.22C163.62 141.32 166.68 142.91 168.84 141.79C171 140.67 171.43 137.24 169.84 134.14C168.25 131.04 165.16 129.45 163 130.58C160.84 131.71 160.36 135.13 162 138.22Z" fill="#302815"/>
<path d="M159.88 139.32C161.6 142.61 164.88 144.32 167.15 143.11C169.42 141.9 169.9 138.27 168.15 134.98C166.4 131.69 163.15 129.98 160.88 131.19C158.61 132.4 158.16 136 159.88 139.32Z" fill="white"/>
<path d="M162.41 136.48L166.52 135.28C166.52 135.28 163.75 130.77 163.99 127.1C164.23 123.43 164.93 120.61 157.79 120.77C150.65 120.93 146.68 128 162.41 136.48Z" fill="#263238"/>
<path d="M139.66 142.74C144.66 151.01 147.14 156.09 153.84 158.43C155.979 159.237 158.299 159.441 160.546 159.018C162.793 158.596 164.88 157.564 166.58 156.036C168.28 154.507 169.528 152.54 170.185 150.35C170.843 148.161 170.886 145.832 170.31 143.62C168.19 135.11 160.39 123.01 150.06 123.55C139.73 124.09 134.68 134.47 139.66 142.74Z" fill="#FFC3BD"/>
<path d="M138.83 134.94C146.65 133.7 160.07 129 158.34 119.67C157.17 113.4 147.4 115.33 145.34 118.5C142.134 122.827 138.082 126.457 133.43 129.17C128.67 131.83 127.16 136.8 138.83 134.94Z" fill="#263238"/>
<path d="M142.72 149.22L146.65 147.52C146.65 147.52 143.33 143.39 143.11 139.72C142.89 136.05 143.22 133.16 136.17 134.22C129.12 135.28 126.06 142.83 142.72 149.22Z" fill="#263238"/>
<path d="M141.67 145.13C141.604 145.131 141.539 145.118 141.479 145.092C141.419 145.066 141.365 145.028 141.32 144.98C135.95 139.7 135.12 134.58 135.11 131.98C135.11 129.56 135.77 127.38 136.86 126.28C136.906 126.233 136.962 126.196 137.023 126.171C137.083 126.145 137.149 126.132 137.215 126.132C137.281 126.132 137.346 126.145 137.407 126.171C137.468 126.196 137.523 126.233 137.57 126.28C137.661 126.373 137.713 126.499 137.713 126.63C137.713 126.761 137.661 126.887 137.57 126.98C136.489 128.413 135.97 130.191 136.11 131.98C136.11 134.4 136.91 139.22 142.02 144.25C142.067 144.296 142.104 144.352 142.129 144.413C142.155 144.474 142.168 144.539 142.168 144.605C142.168 144.671 142.155 144.736 142.129 144.797C142.104 144.858 142.067 144.914 142.02 144.96C141.977 145.012 141.924 145.054 141.863 145.083C141.803 145.112 141.737 145.128 141.67 145.13Z" fill="#302815"/>
<path d="M139.88 153.16C141.707 154.401 143.938 154.901 146.12 154.56C148.98 154.08 149.12 151.31 147.12 149.32C145.4 147.52 141.83 145.62 139.5 147.12C137.17 148.62 137.64 151.63 139.88 153.16Z" fill="#FFC3BD"/>
<path d="M146.53 146.85C148.87 149.74 149.14 153.4 147.13 155.03C145.12 156.66 141.6 155.64 139.26 152.75C136.92 149.86 136.65 146.21 138.66 144.58C140.67 142.95 144.2 144 146.53 146.85Z" fill="white"/>
<path d="M144.69 148.35C146.89 151.06 147.14 154.5 145.25 156.03C143.36 157.56 140.05 156.61 137.85 153.89C135.65 151.17 135.4 147.74 137.29 146.21C139.18 144.68 142.49 145.63 144.69 148.35Z" fill="#302815"/>
<path d="M151.08 140.4H150.33C150.467 139.437 150.959 138.559 151.71 137.94C151.901 137.762 152.13 137.631 152.38 137.556C152.629 137.482 152.893 137.466 153.15 137.51C153.367 137.564 153.569 137.666 153.742 137.808C153.915 137.949 154.054 138.128 154.15 138.33L153.48 138.68C153.435 138.574 153.367 138.479 153.28 138.403C153.193 138.327 153.091 138.271 152.98 138.24C152.83 138.223 152.679 138.241 152.537 138.291C152.395 138.341 152.266 138.423 152.16 138.53C151.599 139.014 151.219 139.673 151.08 140.4Z" fill="#263238"/>
<path d="M159.81 135.08C159.728 134.91 159.685 134.724 159.685 134.535C159.685 134.346 159.728 134.16 159.81 133.99C159.927 133.786 160.087 133.61 160.278 133.473C160.47 133.337 160.689 133.244 160.92 133.2C161.298 133.1 161.697 133.1 162.075 133.199C162.454 133.299 162.8 133.496 163.08 133.77L162.56 134.31C162.374 134.123 162.141 133.99 161.887 133.923C161.632 133.856 161.364 133.858 161.11 133.93C160.982 133.947 160.86 133.992 160.751 134.061C160.642 134.13 160.55 134.222 160.48 134.33C160.445 134.403 160.427 134.484 160.427 134.565C160.427 134.646 160.445 134.727 160.48 134.8L159.81 135.08Z" fill="#263238"/>
<path d="M158.25 137.11C158.25 137.11 161.96 140.37 164.75 141.48C164.09 143.21 161.68 143.67 161.68 143.67L158.25 137.11Z" fill="#ED847E"/>
<path d="M159.67 148.36C157.945 148.908 156.075 148.757 154.46 147.94C154.434 147.925 154.411 147.906 154.392 147.882C154.374 147.858 154.361 147.831 154.353 147.802C154.346 147.773 154.344 147.743 154.349 147.713C154.353 147.684 154.364 147.655 154.38 147.63C154.395 147.603 154.416 147.58 154.441 147.561C154.466 147.543 154.494 147.53 154.524 147.524C154.555 147.517 154.586 147.517 154.616 147.523C154.646 147.529 154.675 147.542 154.7 147.56C155.593 147.987 156.57 148.209 157.56 148.209C158.55 148.209 159.527 147.987 160.42 147.56C160.476 147.535 160.539 147.533 160.597 147.553C160.654 147.574 160.702 147.616 160.73 147.67C160.744 147.696 160.752 147.725 160.754 147.754C160.756 147.784 160.753 147.813 160.744 147.841C160.734 147.869 160.719 147.895 160.7 147.917C160.68 147.939 160.657 147.957 160.63 147.97C160.32 148.123 159.999 148.253 159.67 148.36Z" fill="#263238"/>
<path d="M147.28 138.63C147.201 138.645 147.119 138.645 147.04 138.63C146.979 138.62 146.921 138.599 146.869 138.566C146.816 138.534 146.771 138.491 146.736 138.44C146.7 138.39 146.675 138.333 146.662 138.273C146.649 138.213 146.648 138.151 146.66 138.09C146.779 137.384 147.072 136.718 147.512 136.152C147.951 135.587 148.525 135.139 149.18 134.85C149.296 134.805 149.424 134.806 149.539 134.853C149.654 134.899 149.747 134.988 149.8 135.1C149.824 135.155 149.837 135.214 149.837 135.274C149.838 135.334 149.826 135.394 149.802 135.449C149.779 135.504 149.745 135.554 149.701 135.596C149.658 135.637 149.606 135.669 149.55 135.69C149.029 135.923 148.573 136.282 148.224 136.734C147.875 137.186 147.644 137.717 147.55 138.28C147.539 138.357 147.508 138.429 147.461 138.49C147.414 138.552 147.351 138.6 147.28 138.63Z" fill="#263238"/>
<path d="M163.05 131.25C162.982 131.284 162.906 131.302 162.83 131.302C162.754 131.302 162.678 131.284 162.61 131.25C162.095 130.966 161.521 130.804 160.934 130.776C160.346 130.749 159.76 130.856 159.22 131.09C159.111 131.148 158.983 131.162 158.864 131.129C158.745 131.095 158.643 131.017 158.58 130.91C158.548 130.86 158.527 130.804 158.518 130.746C158.509 130.687 158.512 130.627 158.527 130.57C158.542 130.513 158.569 130.459 158.605 130.413C158.642 130.366 158.688 130.328 158.74 130.3C159.417 129.994 160.155 129.849 160.898 129.875C161.64 129.901 162.366 130.098 163.02 130.45C163.075 130.475 163.125 130.51 163.166 130.555C163.207 130.599 163.238 130.652 163.258 130.709C163.278 130.766 163.285 130.827 163.281 130.888C163.276 130.948 163.259 131.007 163.23 131.06C163.192 131.141 163.129 131.208 163.05 131.25Z" fill="#263238"/>
<path d="M275.49 358.17L284.37 352.77L271.83 328.96L262.95 334.36L275.49 358.17Z" fill="#FFC3BD"/>
<path d="M280.76 345.39L270.42 350.56C270.244 350.665 270.112 350.83 270.049 351.026C269.987 351.221 269.997 351.432 270.08 351.62L273.39 361.46C273.45 361.691 273.557 361.907 273.705 362.094C273.853 362.281 274.038 362.435 274.249 362.546C274.46 362.657 274.692 362.723 274.929 362.739C275.167 362.755 275.406 362.721 275.63 362.64C278.92 360.91 281.22 359.46 285.41 357.37C287.99 356.08 295.94 352.51 299.5 350.73C303.06 348.95 301.2 344.51 299.5 344.86C292.02 346.42 285.79 346.53 282.5 345.33C282.222 345.219 281.923 345.167 281.624 345.178C281.324 345.188 281.03 345.26 280.76 345.39Z" fill="#263238"/>
<path d="M194.21 246.87C194.21 246.87 213.53 249.53 241.67 268C261.16 280.8 278.17 333.33 278.17 333.33L262.93 343.74C262.93 343.74 243.56 301.57 227.34 286C174.04 273.31 158.34 289.9 155.69 253.41C165.11 250.79 194.21 246.87 194.21 246.87Z" fill="#263238"/>
<path d="M281.83 335.64L261.76 345.71L258.21 339.15L279.02 328.2L281.83 335.64Z" fill="#263238"/>
<path d="M144.32 188.83C142.37 195.14 140.32 201.65 138.61 208.02C137.73 211.21 136.93 214.41 136.25 217.52C135.93 219.07 135.64 220.61 135.44 222.06C135.239 223.3 135.136 224.554 135.13 225.81C135.13 226.03 135.13 226.16 135.13 226.22C135.13 226.28 135.13 226.22 135.13 226.17C135.13 226.08 135.04 225.95 134.98 225.84C134.92 225.73 134.77 225.46 134.68 225.33C134.32 224.85 134.24 224.87 134.25 224.89C134.361 225.007 134.481 225.114 134.61 225.21C135.714 225.975 136.882 226.644 138.1 227.21C140.87 228.55 143.94 229.84 147.04 231.04C153.25 233.48 159.71 235.74 166.04 238.13L164.44 245.24C157.457 244.513 150.527 243.347 143.69 241.75C140.149 240.95 136.657 239.949 133.23 238.75C131.255 238.067 129.347 237.203 127.53 236.17C126.934 235.807 126.36 235.409 125.81 234.98C124.969 234.323 124.231 233.544 123.62 232.67C123.39 232.331 123.183 231.976 123 231.61C122.9 231.4 122.8 231.18 122.72 230.98L122.59 230.64C122.41 230.17 122.3 229.77 122.18 229.36C122.005 228.659 121.875 227.948 121.79 227.23C121.546 225.061 121.519 222.874 121.71 220.7C121.86 218.7 122.1 216.89 122.37 215.07C122.92 211.42 123.67 207.93 124.47 204.47C126.101 197.606 128.083 190.83 130.41 184.17L144.32 188.83Z" fill="#FFC3BD"/>
<path d="M141.81 171.69C139.81 172.23 130.74 173.59 124.3 195.76L146.09 204.26C146.09 204.26 161.18 166.51 141.81 171.69Z" fill="#302815"/>
<path d="M165.79 237.9L173.44 241.71L166.44 250.16C166.44 250.16 158.44 245.02 159.9 240.67L162.8 238.25C163.211 237.91 163.713 237.695 164.243 237.633C164.774 237.571 165.311 237.664 165.79 237.9Z" fill="#FFC3BD"/>
<path d="M180.35 249.4L172.71 255.64L166.4 250.16L173.44 241.71L180.35 249.4Z" fill="#FFC3BD"/>
</svg>
